f you must download and send. Keep active torrents for other! Thanks
Se si scarica devi inviare. Mantenere torrents attivi per altri! Grazie
Daca descarci trebuie sa trimiti. Pastreaza torrentul activ si pentru alti! Mersi
---------------------------------------------------------------------------------


Walt Disney.Tarzan.1999 [Eng_Ro] AC3.H264_MarGelaTu.mp4 - http://www.imdb.com/title/tt0120855/
---------------------------------------------------------------------------------------------
Source: Tarzan.1999.DVDR.ROdubbed.ROsubbed-ORiGINAL (by zuzuzuzu - tnx)

      Format : MPEG-4
      Format profile : Base Media / Version 2
      Codec ID : mp42
      File size : 1.12 GiB
      Duration : 1h 24mn
      Overall bit rate : 1 894 Kbps
      Encoded date : UTC 2010-07-04 11:15:59
      Tagged date : UTC 2010-07-04 12:12:18
     
   Video #1
      ID : 1
      Format : AVC
      Format/Info : Advanced Video Codec
      Format profile : High@L3.1
      Format settings, CABAC : Yes
      Format settings, ReFrames : 3 frames
      Codec ID : avc1
      Codec ID/Info : Advanced Video Coding
      Duration : 1h 24mn
      Bit rate mode : Variable
      Bit rate : 1 538 Kbps
      Width : 720 pixels
      Height : 624 pixels
      Display aspect ratio : 1.649
      Frame rate mode : Constant
      Frame rate : 25.000 fps
      Resolution : 24 bits
      Colorimetry : 4:2:0
      Scan type : Progressive
      Bits/(Pixel*Frame) : 0.137
      Stream size : 931 MiB (81%)
      Writing library : x264 core 79
      
   Audio #2
      ID : 2
      Format : AAC
      Format/Info : Advanced Audio Codec
      Format version : Version 4
      Format profile : LC
      Format settings, SBR : No
      Codec ID : 40
      Duration : 1h 24mn
      Bit rate mode : Variable
      Bit rate : 160 Kbps
      Maximum bit rate : 234 Kbps
      Channel(s) : 2 channels
      Channel positions : L R
      Sampling rate : 48.0 KHz
      Resolution : 16 bits
      Stream size : 96.9 MiB (8%)
      Language : English
      Encoded date : UTC 2010-07-04 11:15:59
      Tagged date : UTC 2010-07-04 12:12:18
   Audio #3
      ID : 3
      Format : AC-3
      Format/Info : Audio Coding 3
      Format profile : Dolby Digital
      Codec ID : ac-3
      Duration : 1h 24mn
      Bit rate mode : Constant
      Bit rate : 192 Kbps
      Channel(s) : 2 channels
      Channel positions : L R
      Sampling rate : 48.0 KHz
      Resolution : 16 bits
      Stream size : 116 MiB (10%)
      Language : Romanian
      Encoded date : UTC 2010-07-04 11:15:59
      Tagged date : UTC 2010-07-04 12:12:18